<mxfile host="65bd71144e">
    <diagram id="BftoQ4M9l3bpGqCNaJW8" name="Step 1_Define the purpose">
        <mxGraphModel dx="990" dy="567" grid="1" gridSize="10" guides="1" tooltips="1" connect="1" arrows="1" fold="1" page="1" pageScale="1" pageWidth="827" pageHeight="1169" math="0" shadow="0">
            <root>
                <mxCell id="p7A9AE8B45wEXdgiQYDZ-0"/>
                <mxCell id="p7A9AE8B45wEXdgiQYDZ-1" parent="p7A9AE8B45wEXdgiQYDZ-0"/>
                <mxCell id="p7A9AE8B45wEXdgiQYDZ-2" value="" style="shape=actor;whiteSpace=wrap;html=1;" parent="p7A9AE8B45wEXdgiQYDZ-1" vertex="1">
                    <mxGeometry x="360" y="300" width="70" height="100" as="geometry"/>
                </mxCell>
                <mxCell id="p7A9AE8B45wEXdgiQYDZ-3" value="Product" style="ellipse;shape=cloud;whiteSpace=wrap;html=1;" parent="p7A9AE8B45wEXdgiQYDZ-1" vertex="1">
                    <mxGeometry x="335" y="160" width="120" height="80" as="geometry"/>
                </mxCell>
                <mxCell id="p7A9AE8B45wEXdgiQYDZ-4" value="Customer" style="ellipse;shape=cloud;whiteSpace=wrap;html=1;" parent="p7A9AE8B45wEXdgiQYDZ-1" vertex="1">
                    <mxGeometry x="530" y="250" width="120" height="80" as="geometry"/>
                </mxCell>
                <mxCell id="p7A9AE8B45wEXdgiQYDZ-5" value="Companie" style="ellipse;shape=cloud;whiteSpace=wrap;html=1;" parent="p7A9AE8B45wEXdgiQYDZ-1" vertex="1">
                    <mxGeometry x="100" y="230" width="120" height="80" as="geometry"/>
                </mxCell>
            </root>
        </mxGraphModel>
    </diagram>
    <diagram id="SfidCJ8BkUveGsl_4IyG" name="Step 2_The ERM">
        <mxGraphModel dx="990" dy="567" grid="1" gridSize="10" guides="1" tooltips="1" connect="1" arrows="1" fold="1" page="1" pageScale="1" pageWidth="827" pageHeight="1169" math="0" shadow="0">
            <root>
                <mxCell id="0"/>
                <mxCell id="1" parent="0"/>
                <mxCell id="Wu_AGs6K-JH0apfa06fK-2" style="edgeStyle=none;html=1;exitX=1;exitY=0.75;exitDx=0;exitDy=0;entryX=0;entryY=0.5;entryDx=0;entryDy=0;startArrow=ERone;startFill=0;endArrow=ERone;endFill=0;" edge="1" parent="1" source="mz25Tj_YjTC5d9k70RLO-1" target="mz25Tj_YjTC5d9k70RLO-6">
                    <mxGeometry relative="1" as="geometry"/>
                </mxCell>
                <mxCell id="Wu_AGs6K-JH0apfa06fK-10" style="edgeStyle=none;html=1;exitX=0.25;exitY=1;exitDx=0;exitDy=0;entryX=0.5;entryY=0;entryDx=0;entryDy=0;startArrow=ERmany;startFill=0;endArrow=ERmany;endFill=0;" edge="1" parent="1" source="mz25Tj_YjTC5d9k70RLO-1" target="mz25Tj_YjTC5d9k70RLO-5">
                    <mxGeometry relative="1" as="geometry"/>
                </mxCell>
                <mxCell id="mz25Tj_YjTC5d9k70RLO-1" value="Customer" style="rounded=0;whiteSpace=wrap;html=1;" parent="1" vertex="1">
                    <mxGeometry x="360" y="670" width="120" height="60" as="geometry"/>
                </mxCell>
                <mxCell id="mz25Tj_YjTC5d9k70RLO-2" value="Product" style="rounded=0;whiteSpace=wrap;html=1;" parent="1" vertex="1">
                    <mxGeometry x="360" y="300" width="120" height="60" as="geometry"/>
                </mxCell>
                <mxCell id="BYhoXUQVwIKaxeGHdYCk-1" style="edgeStyle=none;html=1;exitX=0.5;exitY=1;exitDx=0;exitDy=0;entryX=0.5;entryY=0;entryDx=0;entryDy=0;endArrow=ERmany;endFill=0;startArrow=ERone;startFill=0;" edge="1" parent="1" source="mz25Tj_YjTC5d9k70RLO-3" target="mz25Tj_YjTC5d9k70RLO-2">
                    <mxGeometry relative="1" as="geometry"/>
                </mxCell>
                <mxCell id="mz25Tj_YjTC5d9k70RLO-3" value="Companie" style="rounded=0;whiteSpace=wrap;html=1;" parent="1" vertex="1">
                    <mxGeometry x="360" y="120" width="120" height="60" as="geometry"/>
                </mxCell>
                <mxCell id="Wu_AGs6K-JH0apfa06fK-8" style="edgeStyle=none;html=1;exitX=1;exitY=0.5;exitDx=0;exitDy=0;entryX=0;entryY=0.5;entryDx=0;entryDy=0;startArrow=ERmany;startFill=0;endArrow=ERmany;endFill=0;" edge="1" parent="1" source="mz25Tj_YjTC5d9k70RLO-4" target="mz25Tj_YjTC5d9k70RLO-1">
                    <mxGeometry relative="1" as="geometry"/>
                </mxCell>
                <mxCell id="mz25Tj_YjTC5d9k70RLO-4" value="lName" style="ellipse;whiteSpace=wrap;html=1;" parent="1" vertex="1">
                    <mxGeometry x="180" y="630" width="120" height="80" as="geometry"/>
                </mxCell>
                <mxCell id="mz25Tj_YjTC5d9k70RLO-5" value="Address" style="ellipse;whiteSpace=wrap;html=1;" parent="1" vertex="1">
                    <mxGeometry x="300" y="800" width="120" height="80" as="geometry"/>
                </mxCell>
                <mxCell id="mz25Tj_YjTC5d9k70RLO-6" value="Username" style="ellipse;whiteSpace=wrap;html=1;" parent="1" vertex="1">
                    <mxGeometry x="540" y="710" width="120" height="80" as="geometry"/>
                </mxCell>
                <mxCell id="mz25Tj_YjTC5d9k70RLO-7" value="Account_id" style="ellipse;whiteSpace=wrap;html=1;" parent="1" vertex="1">
                    <mxGeometry x="540" y="790" width="120" height="80" as="geometry"/>
                </mxCell>
                <mxCell id="mz25Tj_YjTC5d9k70RLO-8" value="email" style="ellipse;whiteSpace=wrap;html=1;" parent="1" vertex="1">
                    <mxGeometry x="180" y="790" width="120" height="80" as="geometry"/>
                </mxCell>
                <mxCell id="mz25Tj_YjTC5d9k70RLO-9" value="fName" style="ellipse;whiteSpace=wrap;html=1;" parent="1" vertex="1">
                    <mxGeometry x="540" y="630" width="120" height="80" as="geometry"/>
                </mxCell>
                <mxCell id="Wu_AGs6K-JH0apfa06fK-18" style="edgeStyle=none;html=1;exitX=0;exitY=1;exitDx=0;exitDy=0;entryX=0.75;entryY=0;entryDx=0;entryDy=0;startArrow=ERone;startFill=0;endArrow=ERone;endFill=0;" edge="1" parent="1" source="mz25Tj_YjTC5d9k70RLO-10" target="mz25Tj_YjTC5d9k70RLO-3">
                    <mxGeometry relative="1" as="geometry"/>
                </mxCell>
                <mxCell id="mz25Tj_YjTC5d9k70RLO-10" value="Address" style="ellipse;whiteSpace=wrap;html=1;" parent="1" vertex="1">
                    <mxGeometry x="480" width="120" height="80" as="geometry"/>
                </mxCell>
                <mxCell id="mz25Tj_YjTC5d9k70RLO-11" value="email" style="ellipse;whiteSpace=wrap;html=1;" parent="1" vertex="1">
                    <mxGeometry x="360" width="120" height="80" as="geometry"/>
                </mxCell>
                <mxCell id="Wu_AGs6K-JH0apfa06fK-17" style="edgeStyle=none;html=1;exitX=1;exitY=1;exitDx=0;exitDy=0;startArrow=ERone;startFill=0;endArrow=ERone;endFill=0;" edge="1" parent="1" source="mz25Tj_YjTC5d9k70RLO-12" target="mz25Tj_YjTC5d9k70RLO-3">
                    <mxGeometry relative="1" as="geometry"/>
                </mxCell>
                <mxCell id="mz25Tj_YjTC5d9k70RLO-12" value="Name" style="ellipse;whiteSpace=wrap;html=1;" parent="1" vertex="1">
                    <mxGeometry x="240" width="120" height="80" as="geometry"/>
                </mxCell>
                <mxCell id="Wu_AGs6K-JH0apfa06fK-4" style="edgeStyle=none;html=1;exitX=1;exitY=0.5;exitDx=0;exitDy=0;entryX=0;entryY=0.5;entryDx=0;entryDy=0;startArrow=ERone;startFill=0;endArrow=ERone;endFill=0;" edge="1" parent="1" source="mz25Tj_YjTC5d9k70RLO-13" target="mz25Tj_YjTC5d9k70RLO-3">
                    <mxGeometry relative="1" as="geometry"/>
                </mxCell>
                <mxCell id="mz25Tj_YjTC5d9k70RLO-13" value="Companie_id" style="ellipse;whiteSpace=wrap;html=1;" parent="1" vertex="1">
                    <mxGeometry x="164" y="80" width="120" height="80" as="geometry"/>
                </mxCell>
                <mxCell id="Wu_AGs6K-JH0apfa06fK-19" style="edgeStyle=none;html=1;exitX=0;exitY=0.5;exitDx=0;exitDy=0;entryX=1;entryY=0.25;entryDx=0;entryDy=0;startArrow=ERone;startFill=0;endArrow=ERone;endFill=0;" edge="1" parent="1" source="mz25Tj_YjTC5d9k70RLO-14" target="mz25Tj_YjTC5d9k70RLO-3">
                    <mxGeometry relative="1" as="geometry"/>
                </mxCell>
                <mxCell id="mz25Tj_YjTC5d9k70RLO-14" value="Telephone" style="ellipse;whiteSpace=wrap;html=1;" parent="1" vertex="1">
                    <mxGeometry x="580" y="80" width="120" height="80" as="geometry"/>
                </mxCell>
                <mxCell id="Wu_AGs6K-JH0apfa06fK-15" style="edgeStyle=none;html=1;exitX=1;exitY=0.5;exitDx=0;exitDy=0;entryX=-0.003;entryY=0.377;entryDx=0;entryDy=0;entryPerimeter=0;startArrow=ERone;startFill=0;endArrow=ERone;endFill=0;" edge="1" parent="1" source="mz25Tj_YjTC5d9k70RLO-15" target="mz25Tj_YjTC5d9k70RLO-2">
                    <mxGeometry relative="1" as="geometry"/>
                </mxCell>
                <mxCell id="mz25Tj_YjTC5d9k70RLO-15" value="Name" style="ellipse;whiteSpace=wrap;html=1;" parent="1" vertex="1">
                    <mxGeometry x="180" y="250" width="120" height="80" as="geometry"/>
                </mxCell>
                <mxCell id="Wu_AGs6K-JH0apfa06fK-3" style="edgeStyle=none;html=1;exitX=0;exitY=0.5;exitDx=0;exitDy=0;entryX=1;entryY=0;entryDx=0;entryDy=0;startArrow=ERone;startFill=0;endArrow=ERone;endFill=0;" edge="1" parent="1" source="mz25Tj_YjTC5d9k70RLO-16" target="mz25Tj_YjTC5d9k70RLO-2">
                    <mxGeometry relative="1" as="geometry"/>
                </mxCell>
                <mxCell id="mz25Tj_YjTC5d9k70RLO-16" value="Product_id" style="ellipse;whiteSpace=wrap;html=1;" parent="1" vertex="1">
                    <mxGeometry x="540" y="250" width="120" height="80" as="geometry"/>
                </mxCell>
                <mxCell id="Wu_AGs6K-JH0apfa06fK-16" style="edgeStyle=none;html=1;exitX=1;exitY=0.5;exitDx=0;exitDy=0;entryX=0;entryY=0.75;entryDx=0;entryDy=0;startArrow=ERone;startFill=0;endArrow=ERone;endFill=0;" edge="1" parent="1" source="mz25Tj_YjTC5d9k70RLO-17" target="mz25Tj_YjTC5d9k70RLO-2">
                    <mxGeometry relative="1" as="geometry"/>
                </mxCell>
                <mxCell id="mz25Tj_YjTC5d9k70RLO-17" value="Description" style="ellipse;whiteSpace=wrap;html=1;" parent="1" vertex="1">
                    <mxGeometry x="180" y="330" width="120" height="80" as="geometry"/>
                </mxCell>
                <mxCell id="Wu_AGs6K-JH0apfa06fK-14" style="edgeStyle=none;html=1;exitX=0;exitY=0.5;exitDx=0;exitDy=0;entryX=1;entryY=0.75;entryDx=0;entryDy=0;startArrow=ERone;startFill=0;endArrow=ERmany;endFill=0;" edge="1" parent="1" source="mz25Tj_YjTC5d9k70RLO-19" target="mz25Tj_YjTC5d9k70RLO-2">
                    <mxGeometry relative="1" as="geometry"/>
                </mxCell>
                <mxCell id="mz25Tj_YjTC5d9k70RLO-19" value="Set" style="ellipse;whiteSpace=wrap;html=1;" parent="1" vertex="1">
                    <mxGeometry x="540" y="330" width="120" height="80" as="geometry"/>
                </mxCell>
                <mxCell id="mz25Tj_YjTC5d9k70RLO-20" style="edgeStyle=none;html=1;exitX=1;exitY=0.5;exitDx=0;exitDy=0;entryX=0;entryY=0.5;entryDx=0;entryDy=0;startArrow=ERmany;startFill=0;endArrow=ERmany;endFill=0;" parent="1" source="mz25Tj_YjTC5d9k70RLO-21" target="mz25Tj_YjTC5d9k70RLO-22" edge="1">
                    <mxGeometry relative="1" as="geometry"/>
                </mxCell>
                <mxCell id="Wu_AGs6K-JH0apfa06fK-5" style="edgeStyle=none;html=1;exitX=0.5;exitY=0;exitDx=0;exitDy=0;entryX=0.5;entryY=1;entryDx=0;entryDy=0;startArrow=ERone;startFill=0;endArrow=ERone;endFill=0;" edge="1" parent="1" source="mz25Tj_YjTC5d9k70RLO-21" target="mz25Tj_YjTC5d9k70RLO-2">
                    <mxGeometry relative="1" as="geometry"/>
                </mxCell>
                <mxCell id="Wu_AGs6K-JH0apfa06fK-6" style="edgeStyle=none;html=1;exitX=0.5;exitY=1;exitDx=0;exitDy=0;startArrow=ERmany;startFill=0;endArrow=ERone;endFill=0;entryX=0.5;entryY=0;entryDx=0;entryDy=0;" edge="1" parent="1" source="mz25Tj_YjTC5d9k70RLO-21" target="mz25Tj_YjTC5d9k70RLO-1">
                    <mxGeometry relative="1" as="geometry">
                        <mxPoint x="420" y="660" as="targetPoint"/>
                    </mxGeometry>
                </mxCell>
                <mxCell id="mz25Tj_YjTC5d9k70RLO-21" value="transaction" style="rhombus;whiteSpace=wrap;html=1;" parent="1" vertex="1">
                    <mxGeometry x="380" y="500" width="80" height="80" as="geometry"/>
                </mxCell>
                <mxCell id="mz25Tj_YjTC5d9k70RLO-22" value="date" style="ellipse;whiteSpace=wrap;html=1;" parent="1" vertex="1">
                    <mxGeometry x="544" y="500" width="120" height="80" as="geometry"/>
                </mxCell>
                <mxCell id="mz25Tj_YjTC5d9k70RLO-23" style="edgeStyle=none;html=1;exitX=1;exitY=0.5;exitDx=0;exitDy=0;entryX=0;entryY=0.5;entryDx=0;entryDy=0;startArrow=ERone;startFill=0;endArrow=ERone;endFill=0;" parent="1" source="mz25Tj_YjTC5d9k70RLO-24" target="mz25Tj_YjTC5d9k70RLO-21" edge="1">
                    <mxGeometry relative="1" as="geometry"/>
                </mxCell>
                <mxCell id="mz25Tj_YjTC5d9k70RLO-24" value="transaction_id" style="ellipse;whiteSpace=wrap;html=1;" parent="1" vertex="1">
                    <mxGeometry x="164" y="500" width="120" height="80" as="geometry"/>
                </mxCell>
                <mxCell id="Wu_AGs6K-JH0apfa06fK-1" style="edgeStyle=none;html=1;exitX=1;exitY=1;exitDx=0;exitDy=0;entryX=0;entryY=0.5;entryDx=0;entryDy=0;startArrow=ERone;startFill=0;endArrow=ERone;endFill=0;" edge="1" parent="1" source="mz25Tj_YjTC5d9k70RLO-1">
                    <mxGeometry relative="1" as="geometry">
                        <mxPoint x="460" y="810" as="sourcePoint"/>
                        <mxPoint x="550" y="810" as="targetPoint"/>
                    </mxGeometry>
                </mxCell>
                <mxCell id="Wu_AGs6K-JH0apfa06fK-7" style="edgeStyle=none;html=1;exitX=1;exitY=0.5;exitDx=0;exitDy=0;entryX=0.01;entryY=0.357;entryDx=0;entryDy=0;startArrow=ERmany;startFill=0;endArrow=ERmany;endFill=0;entryPerimeter=0;" edge="1" parent="1" target="mz25Tj_YjTC5d9k70RLO-9">
                    <mxGeometry relative="1" as="geometry">
                        <mxPoint x="480" y="670" as="sourcePoint"/>
                        <mxPoint x="564" y="670" as="targetPoint"/>
                    </mxGeometry>
                </mxCell>
                <mxCell id="Wu_AGs6K-JH0apfa06fK-11" style="edgeStyle=none;html=1;exitX=0;exitY=1;exitDx=0;exitDy=0;entryX=1;entryY=0;entryDx=0;entryDy=0;startArrow=ERone;startFill=0;endArrow=ERone;endFill=0;" edge="1" parent="1" source="mz25Tj_YjTC5d9k70RLO-1" target="mz25Tj_YjTC5d9k70RLO-8">
                    <mxGeometry relative="1" as="geometry">
                        <mxPoint x="490" y="740" as="sourcePoint"/>
                        <mxPoint x="560" y="820" as="targetPoint"/>
                        <Array as="points"/>
                    </mxGeometry>
                </mxCell>
                <mxCell id="Wu_AGs6K-JH0apfa06fK-12" style="edgeStyle=none;html=1;exitX=0.5;exitY=1;exitDx=0;exitDy=0;startArrow=ERone;startFill=0;endArrow=ERone;endFill=0;entryX=0.5;entryY=0;entryDx=0;entryDy=0;" edge="1" parent="1" source="mz25Tj_YjTC5d9k70RLO-11" target="mz25Tj_YjTC5d9k70RLO-3">
                    <mxGeometry relative="1" as="geometry">
                        <mxPoint x="414" y="80" as="sourcePoint"/>
                        <mxPoint x="484" y="160" as="targetPoint"/>
                    </mxGeometry>
                </mxCell>
                <mxCell id="ufZ4dYLtVUYKjgn7GGsq-1" value="email" style="ellipse;whiteSpace=wrap;html=1;" vertex="1" parent="1">
                    <mxGeometry x="420" y="800" width="120" height="80" as="geometry"/>
                </mxCell>
                <mxCell id="ufZ4dYLtVUYKjgn7GGsq-2" style="edgeStyle=none;html=1;exitX=0;exitY=1;exitDx=0;exitDy=0;entryX=0.271;entryY=0.021;entryDx=0;entryDy=0;startArrow=ERone;startFill=0;endArrow=ERone;endFill=0;entryPerimeter=0;" edge="1" parent="1" target="ufZ4dYLtVUYKjgn7GGsq-1">
                    <mxGeometry relative="1" as="geometry">
                        <mxPoint x="452.57" y="730" as="sourcePoint"/>
                        <mxPoint x="374.99640687119296" y="801.7157287525381" as="targetPoint"/>
                        <Array as="points"/>
                    </mxGeometry>
                </mxCell>
            </root>
        </mxGraphModel>
    </diagram>
    <diagram id="MAcOQeWAqqJxacAHFtBG" name="Step 3_UML">
        <mxGraphModel dx="990" dy="567" grid="1" gridSize="10" guides="1" tooltips="1" connect="1" arrows="1" fold="1" page="1" pageScale="1" pageWidth="827" pageHeight="1169" math="0" shadow="0">
            <root>
                <mxCell id="bltSFaBkxvMaxDuWufUZ-0"/>
                <mxCell id="bltSFaBkxvMaxDuWufUZ-1" parent="bltSFaBkxvMaxDuWufUZ-0"/>
                <mxCell id="5Vwtv1XRabFov6B1tKpm-0" value="Product" style="swimlane;fontStyle=0;childLayout=stackLayout;horizontal=1;startSize=30;horizontalStack=0;resizeParent=1;resizeParentMax=0;resizeLast=0;collapsible=1;marginBottom=0;" parent="bltSFaBkxvMaxDuWufUZ-1" vertex="1">
                    <mxGeometry x="200" y="80" width="130" height="300" as="geometry"/>
                </mxCell>
                <mxCell id="5Vwtv1XRabFov6B1tKpm-1" value="product_id: int" style="text;strokeColor=#6c8ebf;fillColor=#dae8fc;align=left;verticalAlign=middle;spacingLeft=4;spacingRight=4;overflow=hidden;points=[[0,0.5],[1,0.5]];portConstraint=eastwest;rotatable=0;gradientColor=#7ea6e0;" parent="5Vwtv1XRabFov6B1tKpm-0" vertex="1">
                    <mxGeometry y="30" width="130" height="30" as="geometry"/>
                </mxCell>
                <mxCell id="5Vwtv1XRabFov6B1tKpm-2" value="Name: string" style="text;strokeColor=none;fillColor=none;align=left;verticalAlign=middle;spacingLeft=4;spacingRight=4;overflow=hidden;points=[[0,0.5],[1,0.5]];portConstraint=eastwest;rotatable=0;" parent="5Vwtv1XRabFov6B1tKpm-0" vertex="1">
                    <mxGeometry y="60" width="130" height="30" as="geometry"/>
                </mxCell>
                <mxCell id="5Vwtv1XRabFov6B1tKpm-3" value="Description: string" style="text;strokeColor=none;fillColor=none;align=left;verticalAlign=middle;spacingLeft=4;spacingRight=4;overflow=hidden;points=[[0,0.5],[1,0.5]];portConstraint=eastwest;rotatable=0;" parent="5Vwtv1XRabFov6B1tKpm-0" vertex="1">
                    <mxGeometry y="90" width="130" height="30" as="geometry"/>
                </mxCell>
                <mxCell id="5Vwtv1XRabFov6B1tKpm-4" value="Photo: string" style="text;strokeColor=none;fillColor=none;align=left;verticalAlign=middle;spacingLeft=4;spacingRight=4;overflow=hidden;points=[[0,0.5],[1,0.5]];portConstraint=eastwest;rotatable=0;" parent="5Vwtv1XRabFov6B1tKpm-0" vertex="1">
                    <mxGeometry y="120" width="130" height="30" as="geometry"/>
                </mxCell>
                <mxCell id="5Vwtv1XRabFov6B1tKpm-5" value="Price: int" style="text;strokeColor=none;fillColor=none;align=left;verticalAlign=middle;spacingLeft=4;spacingRight=4;overflow=hidden;points=[[0,0.5],[1,0.5]];portConstraint=eastwest;rotatable=0;" parent="5Vwtv1XRabFov6B1tKpm-0" vertex="1">
                    <mxGeometry y="150" width="130" height="30" as="geometry"/>
                </mxCell>
                <mxCell id="5Vwtv1XRabFov6B1tKpm-8" value="location: string" style="text;strokeColor=none;fillColor=none;align=left;verticalAlign=middle;spacingLeft=4;spacingRight=4;overflow=hidden;points=[[0,0.5],[1,0.5]];portConstraint=eastwest;rotatable=0;" parent="5Vwtv1XRabFov6B1tKpm-0" vertex="1">
                    <mxGeometry y="180" width="130" height="30" as="geometry"/>
                </mxCell>
                <mxCell id="5Vwtv1XRabFov6B1tKpm-9" value="Set: string" style="text;strokeColor=none;fillColor=none;align=left;verticalAlign=middle;spacingLeft=4;spacingRight=4;overflow=hidden;points=[[0,0.5],[1,0.5]];portConstraint=eastwest;rotatable=0;" parent="5Vwtv1XRabFov6B1tKpm-0" vertex="1">
                    <mxGeometry y="210" width="130" height="30" as="geometry"/>
                </mxCell>
                <mxCell id="5Vwtv1XRabFov6B1tKpm-10" value="fk_transaction_id: int" style="text;strokeColor=#3A5431;fillColor=#6d8764;align=left;verticalAlign=middle;spacingLeft=4;spacingRight=4;overflow=hidden;points=[[0,0.5],[1,0.5]];portConstraint=eastwest;rotatable=0;fontColor=#ffffff;" parent="5Vwtv1XRabFov6B1tKpm-0" vertex="1">
                    <mxGeometry y="240" width="130" height="30" as="geometry"/>
                </mxCell>
                <mxCell id="jBjm1If3MzJsPhqMC9hZ-0" value="fk_companie_id: int" style="text;strokeColor=#3A5431;fillColor=#6d8764;align=left;verticalAlign=middle;spacingLeft=4;spacingRight=4;overflow=hidden;points=[[0,0.5],[1,0.5]];portConstraint=eastwest;rotatable=0;fontColor=#ffffff;" parent="5Vwtv1XRabFov6B1tKpm-0" vertex="1">
                    <mxGeometry y="270" width="130" height="30" as="geometry"/>
                </mxCell>
                <mxCell id="5Vwtv1XRabFov6B1tKpm-11" value="Customer" style="swimlane;fontStyle=0;childLayout=stackLayout;horizontal=1;startSize=30;horizontalStack=0;resizeParent=1;resizeParentMax=0;resizeLast=0;collapsible=1;marginBottom=0;" parent="bltSFaBkxvMaxDuWufUZ-1" vertex="1">
                    <mxGeometry x="600" y="80" width="117" height="300" as="geometry"/>
                </mxCell>
                <mxCell id="5Vwtv1XRabFov6B1tKpm-12" value="customer_id: int" style="text;strokeColor=#6c8ebf;fillColor=#dae8fc;align=left;verticalAlign=middle;spacingLeft=4;spacingRight=4;overflow=hidden;points=[[0,0.5],[1,0.5]];portConstraint=eastwest;rotatable=0;gradientColor=#7ea6e0;" parent="5Vwtv1XRabFov6B1tKpm-11" vertex="1">
                    <mxGeometry y="30" width="117" height="30" as="geometry"/>
                </mxCell>
                <mxCell id="5Vwtv1XRabFov6B1tKpm-13" value="lName: string" style="text;strokeColor=none;fillColor=none;align=left;verticalAlign=middle;spacingLeft=4;spacingRight=4;overflow=hidden;points=[[0,0.5],[1,0.5]];portConstraint=eastwest;rotatable=0;" parent="5Vwtv1XRabFov6B1tKpm-11" vertex="1">
                    <mxGeometry y="60" width="117" height="30" as="geometry"/>
                </mxCell>
                <mxCell id="5Vwtv1XRabFov6B1tKpm-14" value="fName: string" style="text;strokeColor=none;fillColor=none;align=left;verticalAlign=middle;spacingLeft=4;spacingRight=4;overflow=hidden;points=[[0,0.5],[1,0.5]];portConstraint=eastwest;rotatable=0;" parent="5Vwtv1XRabFov6B1tKpm-11" vertex="1">
                    <mxGeometry y="90" width="117" height="30" as="geometry"/>
                </mxCell>
                <mxCell id="5Vwtv1XRabFov6B1tKpm-15" value="age: int" style="text;strokeColor=none;fillColor=none;align=left;verticalAlign=middle;spacingLeft=4;spacingRight=4;overflow=hidden;points=[[0,0.5],[1,0.5]];portConstraint=eastwest;rotatable=0;" parent="5Vwtv1XRabFov6B1tKpm-11" vertex="1">
                    <mxGeometry y="120" width="117" height="30" as="geometry"/>
                </mxCell>
                <mxCell id="5Vwtv1XRabFov6B1tKpm-16" value="gender: string" style="text;strokeColor=none;fillColor=none;align=left;verticalAlign=middle;spacingLeft=4;spacingRight=4;overflow=hidden;points=[[0,0.5],[1,0.5]];portConstraint=eastwest;rotatable=0;" parent="5Vwtv1XRabFov6B1tKpm-11" vertex="1">
                    <mxGeometry y="150" width="117" height="30" as="geometry"/>
                </mxCell>
                <mxCell id="5Vwtv1XRabFov6B1tKpm-17" value="address: string" style="text;strokeColor=none;fillColor=none;align=left;verticalAlign=middle;spacingLeft=4;spacingRight=4;overflow=hidden;points=[[0,0.5],[1,0.5]];portConstraint=eastwest;rotatable=0;" parent="5Vwtv1XRabFov6B1tKpm-11" vertex="1">
                    <mxGeometry y="180" width="117" height="30" as="geometry"/>
                </mxCell>
                <mxCell id="5Vwtv1XRabFov6B1tKpm-19" value="email: string" style="text;strokeColor=none;fillColor=none;align=left;verticalAlign=middle;spacingLeft=4;spacingRight=4;overflow=hidden;points=[[0,0.5],[1,0.5]];portConstraint=eastwest;rotatable=0;" parent="5Vwtv1XRabFov6B1tKpm-11" vertex="1">
                    <mxGeometry y="210" width="117" height="30" as="geometry"/>
                </mxCell>
                <mxCell id="5Vwtv1XRabFov6B1tKpm-20" value="regular: string" style="text;strokeColor=none;fillColor=none;align=left;verticalAlign=middle;spacingLeft=4;spacingRight=4;overflow=hidden;points=[[0,0.5],[1,0.5]];portConstraint=eastwest;rotatable=0;" parent="5Vwtv1XRabFov6B1tKpm-11" vertex="1">
                    <mxGeometry y="240" width="117" height="30" as="geometry"/>
                </mxCell>
                <mxCell id="5Vwtv1XRabFov6B1tKpm-21" value="password: string" style="text;strokeColor=none;fillColor=none;align=left;verticalAlign=middle;spacingLeft=4;spacingRight=4;overflow=hidden;points=[[0,0.5],[1,0.5]];portConstraint=eastwest;rotatable=0;" parent="5Vwtv1XRabFov6B1tKpm-11" vertex="1">
                    <mxGeometry y="270" width="117" height="30" as="geometry"/>
                </mxCell>
                <mxCell id="5Vwtv1XRabFov6B1tKpm-22" value="Transaction" style="swimlane;fontStyle=0;childLayout=stackLayout;horizontal=1;startSize=30;horizontalStack=0;resizeParent=1;resizeParentMax=0;resizeLast=0;collapsible=1;marginBottom=0;" parent="bltSFaBkxvMaxDuWufUZ-1" vertex="1">
                    <mxGeometry x="390" y="80" width="140" height="240" as="geometry"/>
                </mxCell>
                <mxCell id="5Vwtv1XRabFov6B1tKpm-23" value="transaction_id: int" style="text;strokeColor=#6c8ebf;fillColor=#dae8fc;align=left;verticalAlign=middle;spacingLeft=4;spacingRight=4;overflow=hidden;points=[[0,0.5],[1,0.5]];portConstraint=eastwest;rotatable=0;gradientColor=#7ea6e0;" parent="5Vwtv1XRabFov6B1tKpm-22" vertex="1">
                    <mxGeometry y="30" width="140" height="30" as="geometry"/>
                </mxCell>
                <mxCell id="5Vwtv1XRabFov6B1tKpm-24" value="date: date" style="text;strokeColor=none;fillColor=none;align=left;verticalAlign=middle;spacingLeft=4;spacingRight=4;overflow=hidden;points=[[0,0.5],[1,0.5]];portConstraint=eastwest;rotatable=0;" parent="5Vwtv1XRabFov6B1tKpm-22" vertex="1">
                    <mxGeometry y="60" width="140" height="30" as="geometry"/>
                </mxCell>
                <mxCell id="5Vwtv1XRabFov6B1tKpm-25" value="bank: string" style="text;strokeColor=none;fillColor=none;align=left;verticalAlign=middle;spacingLeft=4;spacingRight=4;overflow=hidden;points=[[0,0.5],[1,0.5]];portConstraint=eastwest;rotatable=0;" parent="5Vwtv1XRabFov6B1tKpm-22" vertex="1">
                    <mxGeometry y="90" width="140" height="30" as="geometry"/>
                </mxCell>
                <mxCell id="5Vwtv1XRabFov6B1tKpm-26" value="aproved: string" style="text;strokeColor=none;fillColor=none;align=left;verticalAlign=middle;spacingLeft=4;spacingRight=4;overflow=hidden;points=[[0,0.5],[1,0.5]];portConstraint=eastwest;rotatable=0;" parent="5Vwtv1XRabFov6B1tKpm-22" vertex="1">
                    <mxGeometry y="120" width="140" height="30" as="geometry"/>
                </mxCell>
                <mxCell id="5Vwtv1XRabFov6B1tKpm-27" value="bank id: int" style="text;strokeColor=none;fillColor=none;align=left;verticalAlign=middle;spacingLeft=4;spacingRight=4;overflow=hidden;points=[[0,0.5],[1,0.5]];portConstraint=eastwest;rotatable=0;" parent="5Vwtv1XRabFov6B1tKpm-22" vertex="1">
                    <mxGeometry y="150" width="140" height="30" as="geometry"/>
                </mxCell>
                <mxCell id="5Vwtv1XRabFov6B1tKpm-28" value="fk_customer_id: int" style="text;strokeColor=#3A5431;fillColor=#6d8764;align=left;verticalAlign=middle;spacingLeft=4;spacingRight=4;overflow=hidden;points=[[0,0.5],[1,0.5]];portConstraint=eastwest;rotatable=0;fontColor=#ffffff;" parent="5Vwtv1XRabFov6B1tKpm-22" vertex="1">
                    <mxGeometry y="180" width="140" height="30" as="geometry"/>
                </mxCell>
                <mxCell id="5Vwtv1XRabFov6B1tKpm-29" value="fk_product_id: int" style="text;strokeColor=#3A5431;fillColor=#6d8764;align=left;verticalAlign=middle;spacingLeft=4;spacingRight=4;overflow=hidden;points=[[0,0.5],[1,0.5]];portConstraint=eastwest;rotatable=0;fontColor=#ffffff;" parent="5Vwtv1XRabFov6B1tKpm-22" vertex="1">
                    <mxGeometry y="210" width="140" height="30" as="geometry"/>
                </mxCell>
                <mxCell id="RoiQtEguqw4ibtDkEK5l-0" value="Companie" style="swimlane;fontStyle=0;childLayout=stackLayout;horizontal=1;startSize=30;horizontalStack=0;resizeParent=1;resizeParentMax=0;resizeLast=0;collapsible=1;marginBottom=0;" parent="bltSFaBkxvMaxDuWufUZ-1" vertex="1">
                    <mxGeometry x="10" y="80" width="140" height="210" as="geometry"/>
                </mxCell>
                <mxCell id="RoiQtEguqw4ibtDkEK5l-1" value="Companie_id: int" style="text;strokeColor=#6c8ebf;fillColor=#dae8fc;align=left;verticalAlign=middle;spacingLeft=4;spacingRight=4;overflow=hidden;points=[[0,0.5],[1,0.5]];portConstraint=eastwest;rotatable=0;gradientColor=#7ea6e0;" parent="RoiQtEguqw4ibtDkEK5l-0" vertex="1">
                    <mxGeometry y="30" width="140" height="30" as="geometry"/>
                </mxCell>
                <mxCell id="RoiQtEguqw4ibtDkEK5l-2" value="Name: string" style="text;strokeColor=none;fillColor=none;align=left;verticalAlign=middle;spacingLeft=4;spacingRight=4;overflow=hidden;points=[[0,0.5],[1,0.5]];portConstraint=eastwest;rotatable=0;" parent="RoiQtEguqw4ibtDkEK5l-0" vertex="1">
                    <mxGeometry y="60" width="140" height="30" as="geometry"/>
                </mxCell>
                <mxCell id="RoiQtEguqw4ibtDkEK5l-3" value="Email: string" style="text;strokeColor=none;fillColor=none;align=left;verticalAlign=middle;spacingLeft=4;spacingRight=4;overflow=hidden;points=[[0,0.5],[1,0.5]];portConstraint=eastwest;rotatable=0;" parent="RoiQtEguqw4ibtDkEK5l-0" vertex="1">
                    <mxGeometry y="90" width="140" height="30" as="geometry"/>
                </mxCell>
                <mxCell id="1k5tXGwux48BqGk3Wfwd-0" value="Telephone: int" style="text;strokeColor=none;fillColor=none;align=left;verticalAlign=middle;spacingLeft=4;spacingRight=4;overflow=hidden;points=[[0,0.5],[1,0.5]];portConstraint=eastwest;rotatable=0;" parent="RoiQtEguqw4ibtDkEK5l-0" vertex="1">
                    <mxGeometry y="120" width="140" height="30" as="geometry"/>
                </mxCell>
                <mxCell id="RoiQtEguqw4ibtDkEK5l-8" value="Address: string" style="text;strokeColor=none;fillColor=none;align=left;verticalAlign=middle;spacingLeft=4;spacingRight=4;overflow=hidden;points=[[0,0.5],[1,0.5]];portConstraint=eastwest;rotatable=0;" parent="RoiQtEguqw4ibtDkEK5l-0" vertex="1">
                    <mxGeometry y="150" width="140" height="30" as="geometry"/>
                </mxCell>
                <mxCell id="RoiQtEguqw4ibtDkEK5l-10" value="fk_transaction_id: int" style="text;strokeColor=#3A5431;fillColor=#6d8764;align=left;verticalAlign=middle;spacingLeft=4;spacingRight=4;overflow=hidden;points=[[0,0.5],[1,0.5]];portConstraint=eastwest;rotatable=0;fontColor=#ffffff;" parent="RoiQtEguqw4ibtDkEK5l-0" vertex="1">
                    <mxGeometry y="180" width="140" height="30" as="geometry"/>
                </mxCell>
                <mxCell id="Ifa2wM2gta5CdhLF6j30-0" style="edgeStyle=none;html=1;exitX=1;exitY=0.5;exitDx=0;exitDy=0;entryX=0;entryY=0.5;entryDx=0;entryDy=0;endArrow=ERmany;endFill=0;startArrow=ERone;startFill=0;" parent="bltSFaBkxvMaxDuWufUZ-1" source="RoiQtEguqw4ibtDkEK5l-3" target="5Vwtv1XRabFov6B1tKpm-3" edge="1">
                    <mxGeometry relative="1" as="geometry"/>
                </mxCell>
                <mxCell id="Ifa2wM2gta5CdhLF6j30-1" style="edgeStyle=none;html=1;exitX=1;exitY=0.5;exitDx=0;exitDy=0;entryX=0;entryY=0.5;entryDx=0;entryDy=0;startArrow=ERmany;startFill=0;endArrow=ERmany;endFill=0;" parent="bltSFaBkxvMaxDuWufUZ-1" source="5Vwtv1XRabFov6B1tKpm-3" target="5Vwtv1XRabFov6B1tKpm-25" edge="1">
                    <mxGeometry relative="1" as="geometry"/>
                </mxCell>
                <mxCell id="Ifa2wM2gta5CdhLF6j30-3" style="edgeStyle=none;html=1;exitX=1;exitY=0.5;exitDx=0;exitDy=0;entryX=0;entryY=0.5;entryDx=0;entryDy=0;startArrow=ERmany;startFill=0;endArrow=ERmany;endFill=0;" parent="bltSFaBkxvMaxDuWufUZ-1" source="5Vwtv1XRabFov6B1tKpm-25" target="5Vwtv1XRabFov6B1tKpm-14" edge="1">
                    <mxGeometry relative="1" as="geometry"/>
                </mxCell>
            </root>
        </mxGraphModel>
    </diagram>
    <diagram id="Pe-IWPN4tiaakaTPTUUt" name="Step 4_Norm">
        <mxGraphModel dx="1817" dy="567" grid="1" gridSize="10" guides="1" tooltips="1" connect="1" arrows="1" fold="1" page="1" pageScale="1" pageWidth="827" pageHeight="1169" math="0" shadow="0">
            <root>
                <mxCell id="l7A9eT8RPMLJg5uUsWfp-0"/>
                <mxCell id="l7A9eT8RPMLJg5uUsWfp-1" parent="l7A9eT8RPMLJg5uUsWfp-0"/>
                <mxCell id="_yUc3wn5C9PAnkP_wkvD-0" value="Product" style="swimlane;fontStyle=0;childLayout=stackLayout;horizontal=1;startSize=30;horizontalStack=0;resizeParent=1;resizeParentMax=0;resizeLast=0;collapsible=1;marginBottom=0;" parent="l7A9eT8RPMLJg5uUsWfp-1" vertex="1">
                    <mxGeometry x="130" y="25" width="130" height="210" as="geometry"/>
                </mxCell>
                <mxCell id="_yUc3wn5C9PAnkP_wkvD-1" value="product_id: int" style="text;strokeColor=#314354;fillColor=#647687;align=left;verticalAlign=middle;spacingLeft=4;spacingRight=4;overflow=hidden;points=[[0,0.5],[1,0.5]];portConstraint=eastwest;rotatable=0;fontColor=#ffffff;" parent="_yUc3wn5C9PAnkP_wkvD-0" vertex="1">
                    <mxGeometry y="30" width="130" height="30" as="geometry"/>
                </mxCell>
                <mxCell id="_yUc3wn5C9PAnkP_wkvD-2" value="Name: string" style="text;strokeColor=none;fillColor=none;align=left;verticalAlign=middle;spacingLeft=4;spacingRight=4;overflow=hidden;points=[[0,0.5],[1,0.5]];portConstraint=eastwest;rotatable=0;" parent="_yUc3wn5C9PAnkP_wkvD-0" vertex="1">
                    <mxGeometry y="60" width="130" height="30" as="geometry"/>
                </mxCell>
                <mxCell id="_yUc3wn5C9PAnkP_wkvD-3" value="Description: string" style="text;strokeColor=none;fillColor=none;align=left;verticalAlign=middle;spacingLeft=4;spacingRight=4;overflow=hidden;points=[[0,0.5],[1,0.5]];portConstraint=eastwest;rotatable=0;" parent="_yUc3wn5C9PAnkP_wkvD-0" vertex="1">
                    <mxGeometry y="90" width="130" height="30" as="geometry"/>
                </mxCell>
                <mxCell id="_yUc3wn5C9PAnkP_wkvD-4" value="Photo: string" style="text;strokeColor=none;fillColor=none;align=left;verticalAlign=middle;spacingLeft=4;spacingRight=4;overflow=hidden;points=[[0,0.5],[1,0.5]];portConstraint=eastwest;rotatable=0;" parent="_yUc3wn5C9PAnkP_wkvD-0" vertex="1">
                    <mxGeometry y="120" width="130" height="30" as="geometry"/>
                </mxCell>
                <mxCell id="_yUc3wn5C9PAnkP_wkvD-5" value="Price: int" style="text;strokeColor=none;fillColor=none;align=left;verticalAlign=middle;spacingLeft=4;spacingRight=4;overflow=hidden;points=[[0,0.5],[1,0.5]];portConstraint=eastwest;rotatable=0;" parent="_yUc3wn5C9PAnkP_wkvD-0" vertex="1">
                    <mxGeometry y="150" width="130" height="30" as="geometry"/>
                </mxCell>
                <mxCell id="_yUc3wn5C9PAnkP_wkvD-7" value="fk_set_id: int" style="text;strokeColor=#3A5431;fillColor=#6d8764;align=left;verticalAlign=middle;spacingLeft=4;spacingRight=4;overflow=hidden;points=[[0,0.5],[1,0.5]];portConstraint=eastwest;rotatable=0;fontColor=#ffffff;" parent="_yUc3wn5C9PAnkP_wkvD-0" vertex="1">
                    <mxGeometry y="180" width="130" height="30" as="geometry"/>
                </mxCell>
                <mxCell id="_yUc3wn5C9PAnkP_wkvD-10" value="Customer" style="swimlane;fontStyle=0;childLayout=stackLayout;horizontal=1;startSize=30;horizontalStack=0;resizeParent=1;resizeParentMax=0;resizeLast=0;collapsible=1;marginBottom=0;" parent="l7A9eT8RPMLJg5uUsWfp-1" vertex="1">
                    <mxGeometry x="650" y="30" width="117" height="300" as="geometry"/>
                </mxCell>
                <mxCell id="_yUc3wn5C9PAnkP_wkvD-11" value="customer_id: int" style="text;strokeColor=#314354;fillColor=#647687;align=left;verticalAlign=middle;spacingLeft=4;spacingRight=4;overflow=hidden;points=[[0,0.5],[1,0.5]];portConstraint=eastwest;rotatable=0;fontColor=#ffffff;" parent="_yUc3wn5C9PAnkP_wkvD-10" vertex="1">
                    <mxGeometry y="30" width="117" height="30" as="geometry"/>
                </mxCell>
                <mxCell id="_yUc3wn5C9PAnkP_wkvD-12" value="lName: string" style="text;strokeColor=none;fillColor=none;align=left;verticalAlign=middle;spacingLeft=4;spacingRight=4;overflow=hidden;points=[[0,0.5],[1,0.5]];portConstraint=eastwest;rotatable=0;" parent="_yUc3wn5C9PAnkP_wkvD-10" vertex="1">
                    <mxGeometry y="60" width="117" height="30" as="geometry"/>
                </mxCell>
                <mxCell id="_yUc3wn5C9PAnkP_wkvD-13" value="fName: string" style="text;strokeColor=none;fillColor=none;align=left;verticalAlign=middle;spacingLeft=4;spacingRight=4;overflow=hidden;points=[[0,0.5],[1,0.5]];portConstraint=eastwest;rotatable=0;" parent="_yUc3wn5C9PAnkP_wkvD-10" vertex="1">
                    <mxGeometry y="90" width="117" height="30" as="geometry"/>
                </mxCell>
                <mxCell id="_yUc3wn5C9PAnkP_wkvD-17" value="email: string" style="text;strokeColor=none;fillColor=none;align=left;verticalAlign=middle;spacingLeft=4;spacingRight=4;overflow=hidden;points=[[0,0.5],[1,0.5]];portConstraint=eastwest;rotatable=0;" parent="_yUc3wn5C9PAnkP_wkvD-10" vertex="1">
                    <mxGeometry y="120" width="117" height="30" as="geometry"/>
                </mxCell>
                <mxCell id="_yUc3wn5C9PAnkP_wkvD-18" value="regular: string" style="text;strokeColor=none;fillColor=none;align=left;verticalAlign=middle;spacingLeft=4;spacingRight=4;overflow=hidden;points=[[0,0.5],[1,0.5]];portConstraint=eastwest;rotatable=0;" parent="_yUc3wn5C9PAnkP_wkvD-10" vertex="1">
                    <mxGeometry y="150" width="117" height="30" as="geometry"/>
                </mxCell>
                <mxCell id="_yUc3wn5C9PAnkP_wkvD-20" value="password: string" style="text;strokeColor=none;fillColor=none;align=left;verticalAlign=middle;spacingLeft=4;spacingRight=4;overflow=hidden;points=[[0,0.5],[1,0.5]];portConstraint=eastwest;rotatable=0;" parent="_yUc3wn5C9PAnkP_wkvD-10" vertex="1">
                    <mxGeometry y="180" width="117" height="30" as="geometry"/>
                </mxCell>
                <mxCell id="_yUc3wn5C9PAnkP_wkvD-19" value="fk_order_id: int" style="text;strokeColor=#3A5431;fillColor=#6d8764;align=left;verticalAlign=middle;spacingLeft=4;spacingRight=4;overflow=hidden;points=[[0,0.5],[1,0.5]];portConstraint=eastwest;rotatable=0;fontColor=#ffffff;" parent="_yUc3wn5C9PAnkP_wkvD-10" vertex="1">
                    <mxGeometry y="210" width="117" height="30" as="geometry"/>
                </mxCell>
                <mxCell id="_yUc3wn5C9PAnkP_wkvD-16" value="fk_location_id: int" style="text;strokeColor=#3A5431;fillColor=#6d8764;align=left;verticalAlign=middle;spacingLeft=4;spacingRight=4;overflow=hidden;points=[[0,0.5],[1,0.5]];portConstraint=eastwest;rotatable=0;fontColor=#ffffff;" parent="_yUc3wn5C9PAnkP_wkvD-10" vertex="1">
                    <mxGeometry y="240" width="117" height="30" as="geometry"/>
                </mxCell>
                <mxCell id="_yUc3wn5C9PAnkP_wkvD-21" value="Fk_transaction_id: int" style="text;strokeColor=#3A5431;fillColor=#6d8764;align=left;verticalAlign=middle;spacingLeft=4;spacingRight=4;overflow=hidden;points=[[0,0.5],[1,0.5]];portConstraint=eastwest;rotatable=0;fontColor=#ffffff;" parent="_yUc3wn5C9PAnkP_wkvD-10" vertex="1">
                    <mxGeometry y="270" width="117" height="30" as="geometry"/>
                </mxCell>
                <mxCell id="_yUc3wn5C9PAnkP_wkvD-22" value="Order" style="swimlane;fontStyle=0;childLayout=stackLayout;horizontal=1;startSize=30;horizontalStack=0;resizeParent=1;resizeParentMax=0;resizeLast=0;collapsible=1;marginBottom=0;" parent="l7A9eT8RPMLJg5uUsWfp-1" vertex="1">
                    <mxGeometry x="400" y="70" width="140" height="240" as="geometry"/>
                </mxCell>
                <mxCell id="_yUc3wn5C9PAnkP_wkvD-23" value="Order_id: int" style="text;strokeColor=#314354;fillColor=#647687;align=left;verticalAlign=middle;spacingLeft=4;spacingRight=4;overflow=hidden;points=[[0,0.5],[1,0.5]];portConstraint=eastwest;rotatable=0;fontColor=#ffffff;" parent="_yUc3wn5C9PAnkP_wkvD-22" vertex="1">
                    <mxGeometry y="30" width="140" height="30" as="geometry"/>
                </mxCell>
                <mxCell id="_yUc3wn5C9PAnkP_wkvD-24" value="OrderDate: date" style="text;strokeColor=none;fillColor=none;align=left;verticalAlign=middle;spacingLeft=4;spacingRight=4;overflow=hidden;points=[[0,0.5],[1,0.5]];portConstraint=eastwest;rotatable=0;" parent="_yUc3wn5C9PAnkP_wkvD-22" vertex="1">
                    <mxGeometry y="60" width="140" height="30" as="geometry"/>
                </mxCell>
                <mxCell id="_yUc3wn5C9PAnkP_wkvD-25" value="ShipDate: date" style="text;strokeColor=none;fillColor=none;align=left;verticalAlign=middle;spacingLeft=4;spacingRight=4;overflow=hidden;points=[[0,0.5],[1,0.5]];portConstraint=eastwest;rotatable=0;" parent="_yUc3wn5C9PAnkP_wkvD-22" vertex="1">
                    <mxGeometry y="90" width="140" height="30" as="geometry"/>
                </mxCell>
                <mxCell id="_yUc3wn5C9PAnkP_wkvD-26" value="DeliveryDate: date" style="text;strokeColor=none;fillColor=none;align=left;verticalAlign=middle;spacingLeft=4;spacingRight=4;overflow=hidden;points=[[0,0.5],[1,0.5]];portConstraint=eastwest;rotatable=0;" parent="_yUc3wn5C9PAnkP_wkvD-22" vertex="1">
                    <mxGeometry y="120" width="140" height="30" as="geometry"/>
                </mxCell>
                <mxCell id="_yUc3wn5C9PAnkP_wkvD-27" value="Quantity: Int" style="text;strokeColor=none;fillColor=none;align=left;verticalAlign=middle;spacingLeft=4;spacingRight=4;overflow=hidden;points=[[0,0.5],[1,0.5]];portConstraint=eastwest;rotatable=0;" parent="_yUc3wn5C9PAnkP_wkvD-22" vertex="1">
                    <mxGeometry y="150" width="140" height="30" as="geometry"/>
                </mxCell>
                <mxCell id="_yUc3wn5C9PAnkP_wkvD-29" value="PriceSum: Int" style="text;strokeColor=none;fillColor=none;align=left;verticalAlign=middle;spacingLeft=4;spacingRight=4;overflow=hidden;points=[[0,0.5],[1,0.5]];portConstraint=eastwest;rotatable=0;" parent="_yUc3wn5C9PAnkP_wkvD-22" vertex="1">
                    <mxGeometry y="180" width="140" height="30" as="geometry"/>
                </mxCell>
                <mxCell id="CN-P--jpQsiQSLgQj2Zq-0" value="Fk_ship_id: int" style="text;strokeColor=#3A5431;fillColor=#6d8764;align=left;verticalAlign=middle;spacingLeft=4;spacingRight=4;overflow=hidden;points=[[0,0.5],[1,0.5]];portConstraint=eastwest;rotatable=0;fontColor=#ffffff;" parent="_yUc3wn5C9PAnkP_wkvD-22" vertex="1">
                    <mxGeometry y="210" width="140" height="30" as="geometry"/>
                </mxCell>
                <mxCell id="_yUc3wn5C9PAnkP_wkvD-31" value="Set" style="swimlane;fontStyle=0;childLayout=stackLayout;horizontal=1;startSize=30;horizontalStack=0;resizeParent=1;resizeParentMax=0;resizeLast=0;collapsible=1;marginBottom=0;" parent="l7A9eT8RPMLJg5uUsWfp-1" vertex="1">
                    <mxGeometry x="-60" y="20" width="130" height="90" as="geometry"/>
                </mxCell>
                <mxCell id="_yUc3wn5C9PAnkP_wkvD-32" value="set_id: int" style="text;strokeColor=#314354;fillColor=#647687;align=left;verticalAlign=middle;spacingLeft=4;spacingRight=4;overflow=hidden;points=[[0,0.5],[1,0.5]];portConstraint=eastwest;rotatable=0;fontColor=#ffffff;" parent="_yUc3wn5C9PAnkP_wkvD-31" vertex="1">
                    <mxGeometry y="30" width="130" height="30" as="geometry"/>
                </mxCell>
                <mxCell id="_yUc3wn5C9PAnkP_wkvD-33" value="Name: string" style="text;strokeColor=none;fillColor=none;align=left;verticalAlign=middle;spacingLeft=4;spacingRight=4;overflow=hidden;points=[[0,0.5],[1,0.5]];portConstraint=eastwest;rotatable=0;" parent="_yUc3wn5C9PAnkP_wkvD-31" vertex="1">
                    <mxGeometry y="60" width="130" height="30" as="geometry"/>
                </mxCell>
                <mxCell id="_yUc3wn5C9PAnkP_wkvD-35" style="edgeStyle=orthogonalEdgeStyle;html=1;exitX=1;exitY=0.5;exitDx=0;exitDy=0;entryX=0;entryY=0.5;entryDx=0;entryDy=0;endArrow=ERone;endFill=0;startArrow=ERone;startFill=0;" parent="l7A9eT8RPMLJg5uUsWfp-1" source="_yUc3wn5C9PAnkP_wkvD-32" target="_yUc3wn5C9PAnkP_wkvD-7" edge="1">
                    <mxGeometry relative="1" as="geometry"/>
                </mxCell>
                <mxCell id="_yUc3wn5C9PAnkP_wkvD-37" value="Shiping" style="swimlane;fontStyle=0;childLayout=stackLayout;horizontal=1;startSize=30;horizontalStack=0;resizeParent=1;resizeParentMax=0;resizeLast=0;collapsible=1;marginBottom=0;" parent="l7A9eT8RPMLJg5uUsWfp-1" vertex="1">
                    <mxGeometry x="60" y="540" width="140" height="120" as="geometry"/>
                </mxCell>
                <mxCell id="_yUc3wn5C9PAnkP_wkvD-38" value="Shiping_id: int" style="text;strokeColor=#314354;fillColor=#647687;align=left;verticalAlign=middle;spacingLeft=4;spacingRight=4;overflow=hidden;points=[[0,0.5],[1,0.5]];portConstraint=eastwest;rotatable=0;fontColor=#ffffff;" parent="_yUc3wn5C9PAnkP_wkvD-37" vertex="1">
                    <mxGeometry y="30" width="140" height="30" as="geometry"/>
                </mxCell>
                <mxCell id="EFD4EbcBfjZt1anDZhpm-2" value="StartLocation: string" style="text;align=left;verticalAlign=middle;spacingLeft=4;spacingRight=4;overflow=hidden;points=[[0,0.5],[1,0.5]];portConstraint=eastwest;rotatable=0;" parent="_yUc3wn5C9PAnkP_wkvD-37" vertex="1">
                    <mxGeometry y="60" width="140" height="30" as="geometry"/>
                </mxCell>
                <mxCell id="EFD4EbcBfjZt1anDZhpm-1" value="EndLocation: string" style="text;align=left;verticalAlign=middle;spacingLeft=4;spacingRight=4;overflow=hidden;points=[[0,0.5],[1,0.5]];portConstraint=eastwest;rotatable=0;" parent="_yUc3wn5C9PAnkP_wkvD-37" vertex="1">
                    <mxGeometry y="90" width="140" height="30" as="geometry"/>
                </mxCell>
                <mxCell id="_yUc3wn5C9PAnkP_wkvD-40" value="Companie" style="swimlane;fontStyle=0;childLayout=stackLayout;horizontal=1;startSize=30;horizontalStack=0;resizeParent=1;resizeParentMax=0;resizeLast=0;collapsible=1;marginBottom=0;" parent="l7A9eT8RPMLJg5uUsWfp-1" vertex="1">
                    <mxGeometry x="-1" y="300" width="140" height="210" as="geometry"/>
                </mxCell>
                <mxCell id="_yUc3wn5C9PAnkP_wkvD-41" value="Companie_id: int" style="text;strokeColor=#314354;fillColor=#647687;align=left;verticalAlign=middle;spacingLeft=4;spacingRight=4;overflow=hidden;points=[[0,0.5],[1,0.5]];portConstraint=eastwest;rotatable=0;fontColor=#ffffff;" parent="_yUc3wn5C9PAnkP_wkvD-40" vertex="1">
                    <mxGeometry y="30" width="140" height="30" as="geometry"/>
                </mxCell>
                <mxCell id="_yUc3wn5C9PAnkP_wkvD-42" value="Name: string" style="text;strokeColor=none;fillColor=none;align=left;verticalAlign=middle;spacingLeft=4;spacingRight=4;overflow=hidden;points=[[0,0.5],[1,0.5]];portConstraint=eastwest;rotatable=0;" parent="_yUc3wn5C9PAnkP_wkvD-40" vertex="1">
                    <mxGeometry y="60" width="140" height="30" as="geometry"/>
                </mxCell>
                <mxCell id="_yUc3wn5C9PAnkP_wkvD-43" value="Email: string" style="text;strokeColor=none;fillColor=none;align=left;verticalAlign=middle;spacingLeft=4;spacingRight=4;overflow=hidden;points=[[0,0.5],[1,0.5]];portConstraint=eastwest;rotatable=0;" parent="_yUc3wn5C9PAnkP_wkvD-40" vertex="1">
                    <mxGeometry y="90" width="140" height="30" as="geometry"/>
                </mxCell>
                <mxCell id="_yUc3wn5C9PAnkP_wkvD-44" value="Telephone: int" style="text;strokeColor=none;fillColor=none;align=left;verticalAlign=middle;spacingLeft=4;spacingRight=4;overflow=hidden;points=[[0,0.5],[1,0.5]];portConstraint=eastwest;rotatable=0;" parent="_yUc3wn5C9PAnkP_wkvD-40" vertex="1">
                    <mxGeometry y="120" width="140" height="30" as="geometry"/>
                </mxCell>
                <mxCell id="_yUc3wn5C9PAnkP_wkvD-45" value="fk_location_id: int" style="text;strokeColor=#3A5431;fillColor=#6d8764;align=left;verticalAlign=middle;spacingLeft=4;spacingRight=4;overflow=hidden;points=[[0,0.5],[1,0.5]];portConstraint=eastwest;rotatable=0;fontColor=#ffffff;" parent="_yUc3wn5C9PAnkP_wkvD-40" vertex="1">
                    <mxGeometry y="150" width="140" height="30" as="geometry"/>
                </mxCell>
                <mxCell id="_yUc3wn5C9PAnkP_wkvD-65" value="fk_bankN_id: int" style="text;strokeColor=#3A5431;fillColor=#6d8764;align=left;verticalAlign=middle;spacingLeft=4;spacingRight=4;overflow=hidden;points=[[0,0.5],[1,0.5]];portConstraint=eastwest;rotatable=0;fontColor=#ffffff;" parent="_yUc3wn5C9PAnkP_wkvD-40" vertex="1">
                    <mxGeometry y="180" width="140" height="30" as="geometry"/>
                </mxCell>
                <mxCell id="_yUc3wn5C9PAnkP_wkvD-48" value="Transaction" style="swimlane;fontStyle=0;childLayout=stackLayout;horizontal=1;startSize=30;horizontalStack=0;resizeParent=1;resizeParentMax=0;resizeLast=0;collapsible=1;marginBottom=0;" parent="l7A9eT8RPMLJg5uUsWfp-1" vertex="1">
                    <mxGeometry x="600" y="560" width="140" height="150" as="geometry"/>
                </mxCell>
                <mxCell id="_yUc3wn5C9PAnkP_wkvD-49" value="transaction_id: int" style="text;strokeColor=#314354;fillColor=#647687;align=left;verticalAlign=middle;spacingLeft=4;spacingRight=4;overflow=hidden;points=[[0,0.5],[1,0.5]];portConstraint=eastwest;rotatable=0;fontColor=#ffffff;" parent="_yUc3wn5C9PAnkP_wkvD-48" vertex="1">
                    <mxGeometry y="30" width="140" height="30" as="geometry"/>
                </mxCell>
                <mxCell id="_yUc3wn5C9PAnkP_wkvD-50" value="Tdate: date" style="text;strokeColor=none;fillColor=none;align=left;verticalAlign=middle;spacingLeft=4;spacingRight=4;overflow=hidden;points=[[0,0.5],[1,0.5]];portConstraint=eastwest;rotatable=0;" parent="_yUc3wn5C9PAnkP_wkvD-48" vertex="1">
                    <mxGeometry y="60" width="140" height="30" as="geometry"/>
                </mxCell>
                <mxCell id="_yUc3wn5C9PAnkP_wkvD-53" value="aproved: string" style="text;strokeColor=none;fillColor=none;align=left;verticalAlign=middle;spacingLeft=4;spacingRight=4;overflow=hidden;points=[[0,0.5],[1,0.5]];portConstraint=eastwest;rotatable=0;" parent="_yUc3wn5C9PAnkP_wkvD-48" vertex="1">
                    <mxGeometry y="90" width="140" height="30" as="geometry"/>
                </mxCell>
                <mxCell id="_yUc3wn5C9PAnkP_wkvD-51" value="fk_bankN: int" style="text;strokeColor=#3A5431;fillColor=#6d8764;align=left;verticalAlign=middle;spacingLeft=4;spacingRight=4;overflow=hidden;points=[[0,0.5],[1,0.5]];portConstraint=eastwest;rotatable=0;fontColor=#ffffff;" parent="_yUc3wn5C9PAnkP_wkvD-48" vertex="1">
                    <mxGeometry y="120" width="140" height="30" as="geometry"/>
                </mxCell>
                <mxCell id="_yUc3wn5C9PAnkP_wkvD-56" style="edgeStyle=orthogonalEdgeStyle;html=1;exitX=0;exitY=0.5;exitDx=0;exitDy=0;entryX=1;entryY=0.5;entryDx=0;entryDy=0;startArrow=ERone;startFill=0;endArrow=ERone;endFill=0;" parent="l7A9eT8RPMLJg5uUsWfp-1" source="_yUc3wn5C9PAnkP_wkvD-66" target="_yUc3wn5C9PAnkP_wkvD-41" edge="1">
                    <mxGeometry relative="1" as="geometry">
                        <mxPoint x="180" y="310" as="sourcePoint"/>
                    </mxGeometry>
                </mxCell>
                <mxCell id="_yUc3wn5C9PAnkP_wkvD-62" style="edgeStyle=orthogonalEdgeStyle;html=1;exitX=0;exitY=0.5;exitDx=0;exitDy=0;entryX=1;entryY=0.5;entryDx=0;entryDy=0;startArrow=ERone;startFill=0;endArrow=ERone;endFill=0;" parent="l7A9eT8RPMLJg5uUsWfp-1" source="_yUc3wn5C9PAnkP_wkvD-19" target="_yUc3wn5C9PAnkP_wkvD-23" edge="1">
                    <mxGeometry relative="1" as="geometry"/>
                </mxCell>
                <mxCell id="_yUc3wn5C9PAnkP_wkvD-63" value="Famazon" style="swimlane;fontStyle=0;childLayout=stackLayout;horizontal=1;startSize=20;horizontalStack=0;resizeParent=1;resizeParentMax=0;resizeLast=0;collapsible=1;marginBottom=0;" parent="l7A9eT8RPMLJg5uUsWfp-1" vertex="1">
                    <mxGeometry x="320" y="360" width="140" height="110" as="geometry"/>
                </mxCell>
                <mxCell id="_yUc3wn5C9PAnkP_wkvD-64" value="Fk_customer_id: int" style="text;strokeColor=#3A5431;fillColor=#6d8764;align=left;verticalAlign=middle;spacingLeft=4;spacingRight=4;overflow=hidden;points=[[0,0.5],[1,0.5]];portConstraint=eastwest;rotatable=0;fontColor=#ffffff;" parent="_yUc3wn5C9PAnkP_wkvD-63" vertex="1">
                    <mxGeometry y="20" width="140" height="30" as="geometry"/>
                </mxCell>
                <mxCell id="_yUc3wn5C9PAnkP_wkvD-66" value="Fk_companie_id: int" style="text;strokeColor=#3A5431;fillColor=#6d8764;align=left;verticalAlign=middle;spacingLeft=4;spacingRight=4;overflow=hidden;points=[[0,0.5],[1,0.5]];portConstraint=eastwest;rotatable=0;fontColor=#ffffff;" parent="_yUc3wn5C9PAnkP_wkvD-63" vertex="1">
                    <mxGeometry y="50" width="140" height="30" as="geometry"/>
                </mxCell>
                <mxCell id="_yUc3wn5C9PAnkP_wkvD-67" value="Fk_product_id: int" style="text;strokeColor=#3A5431;fillColor=#6d8764;align=left;verticalAlign=middle;spacingLeft=4;spacingRight=4;overflow=hidden;points=[[0,0.5],[1,0.5]];portConstraint=eastwest;rotatable=0;fontColor=#ffffff;" parent="_yUc3wn5C9PAnkP_wkvD-63" vertex="1">
                    <mxGeometry y="80" width="140" height="30" as="geometry"/>
                </mxCell>
                <mxCell id="EFD4EbcBfjZt1anDZhpm-3" value="Location" style="swimlane;fontStyle=0;childLayout=stackLayout;horizontal=1;startSize=30;horizontalStack=0;resizeParent=1;resizeParentMax=0;resizeLast=0;collapsible=1;marginBottom=0;" parent="l7A9eT8RPMLJg5uUsWfp-1" vertex="1">
                    <mxGeometry x="360" y="500" width="140" height="150" as="geometry"/>
                </mxCell>
                <mxCell id="EFD4EbcBfjZt1anDZhpm-4" value="location_id: int" style="text;strokeColor=#314354;fillColor=#647687;align=left;verticalAlign=middle;spacingLeft=4;spacingRight=4;overflow=hidden;points=[[0,0.5],[1,0.5]];portConstraint=eastwest;rotatable=0;fontColor=#ffffff;" parent="EFD4EbcBfjZt1anDZhpm-3" vertex="1">
                    <mxGeometry y="30" width="140" height="30" as="geometry"/>
                </mxCell>
                <mxCell id="EFD4EbcBfjZt1anDZhpm-5" value="Addressa: string" style="text;align=left;verticalAlign=middle;spacingLeft=4;spacingRight=4;overflow=hidden;points=[[0,0.5],[1,0.5]];portConstraint=eastwest;rotatable=0;" parent="EFD4EbcBfjZt1anDZhpm-3" vertex="1">
                    <mxGeometry y="60" width="140" height="30" as="geometry"/>
                </mxCell>
                <mxCell id="CN-P--jpQsiQSLgQj2Zq-2" value="ZIP: int" style="text;align=left;verticalAlign=middle;spacingLeft=4;spacingRight=4;overflow=hidden;points=[[0,0.5],[1,0.5]];portConstraint=eastwest;rotatable=0;" parent="EFD4EbcBfjZt1anDZhpm-3" vertex="1">
                    <mxGeometry y="90" width="140" height="30" as="geometry"/>
                </mxCell>
                <mxCell id="EFD4EbcBfjZt1anDZhpm-6" value="City: string" style="text;align=left;verticalAlign=middle;spacingLeft=4;spacingRight=4;overflow=hidden;points=[[0,0.5],[1,0.5]];portConstraint=eastwest;rotatable=0;" parent="EFD4EbcBfjZt1anDZhpm-3" vertex="1">
                    <mxGeometry y="120" width="140" height="30" as="geometry"/>
                </mxCell>
                <mxCell id="EFD4EbcBfjZt1anDZhpm-12" style="edgeStyle=orthogonalEdgeStyle;html=1;exitX=1;exitY=0.5;exitDx=0;exitDy=0;entryX=0;entryY=0.5;entryDx=0;entryDy=0;endArrow=ERone;endFill=0;startArrow=ERone;startFill=0;" parent="l7A9eT8RPMLJg5uUsWfp-1" source="_yUc3wn5C9PAnkP_wkvD-45" target="EFD4EbcBfjZt1anDZhpm-4" edge="1">
                    <mxGeometry relative="1" as="geometry"/>
                </mxCell>
                <mxCell id="EFD4EbcBfjZt1anDZhpm-16" style="edgeStyle=orthogonalEdgeStyle;html=1;exitX=1;exitY=0.5;exitDx=0;exitDy=0;entryX=1;entryY=0.5;entryDx=0;entryDy=0;startArrow=ERone;startFill=0;endArrow=ERone;endFill=0;" parent="l7A9eT8RPMLJg5uUsWfp-1" source="EFD4EbcBfjZt1anDZhpm-4" target="_yUc3wn5C9PAnkP_wkvD-16" edge="1">
                    <mxGeometry relative="1" as="geometry"/>
                </mxCell>
                <mxCell id="EFD4EbcBfjZt1anDZhpm-17" style="edgeStyle=orthogonalEdgeStyle;html=1;exitX=1;exitY=0.5;exitDx=0;exitDy=0;entryX=1;entryY=0.25;entryDx=0;entryDy=0;startArrow=ERone;startFill=0;endArrow=ERone;endFill=0;" parent="l7A9eT8RPMLJg5uUsWfp-1" source="_yUc3wn5C9PAnkP_wkvD-21" target="_yUc3wn5C9PAnkP_wkvD-48" edge="1">
                    <mxGeometry relative="1" as="geometry">
                        <Array as="points">
                            <mxPoint x="800" y="375"/>
                            <mxPoint x="800" y="605"/>
                        </Array>
                    </mxGeometry>
                </mxCell>
                <mxCell id="EFD4EbcBfjZt1anDZhpm-18" style="edgeStyle=orthogonalEdgeStyle;html=1;exitX=0;exitY=0.5;exitDx=0;exitDy=0;entryX=1;entryY=0.5;entryDx=0;entryDy=0;startArrow=ERone;startFill=0;endArrow=ERone;endFill=0;" parent="l7A9eT8RPMLJg5uUsWfp-1" source="_yUc3wn5C9PAnkP_wkvD-11" target="_yUc3wn5C9PAnkP_wkvD-64" edge="1">
                    <mxGeometry relative="1" as="geometry"/>
                </mxCell>
                <mxCell id="EFD4EbcBfjZt1anDZhpm-19" style="edgeStyle=orthogonalEdgeStyle;html=1;exitX=0;exitY=0.5;exitDx=0;exitDy=0;entryX=1;entryY=0.5;entryDx=0;entryDy=0;startArrow=ERone;startFill=0;endArrow=ERone;endFill=0;" parent="l7A9eT8RPMLJg5uUsWfp-1" source="CN-P--jpQsiQSLgQj2Zq-0" target="_yUc3wn5C9PAnkP_wkvD-38" edge="1">
                    <mxGeometry relative="1" as="geometry"/>
                </mxCell>
                <mxCell id="EFD4EbcBfjZt1anDZhpm-20" style="edgeStyle=orthogonalEdgeStyle;html=1;exitX=1;exitY=0.5;exitDx=0;exitDy=0;startArrow=ERone;startFill=0;endArrow=ERone;endFill=0;" parent="l7A9eT8RPMLJg5uUsWfp-1" source="_yUc3wn5C9PAnkP_wkvD-1" edge="1">
                    <mxGeometry relative="1" as="geometry">
                        <mxPoint x="320" y="460" as="targetPoint"/>
                        <Array as="points">
                            <mxPoint x="280" y="70"/>
                            <mxPoint x="280" y="460"/>
                        </Array>
                    </mxGeometry>
                </mxCell>
                <mxCell id="6K4qb_Y8Pc9taCNDKlVI-1" value="Bank" style="swimlane;fontStyle=0;childLayout=stackLayout;horizontal=1;startSize=30;horizontalStack=0;resizeParent=1;resizeParentMax=0;resizeLast=0;collapsible=1;marginBottom=0;" parent="l7A9eT8RPMLJg5uUsWfp-1" vertex="1">
                    <mxGeometry x="300" y="650" width="140" height="90" as="geometry"/>
                </mxCell>
                <mxCell id="6K4qb_Y8Pc9taCNDKlVI-2" value="Bank_id: int" style="text;strokeColor=#314354;fillColor=#647687;align=left;verticalAlign=middle;spacingLeft=4;spacingRight=4;overflow=hidden;points=[[0,0.5],[1,0.5]];portConstraint=eastwest;rotatable=0;fontColor=#ffffff;" parent="6K4qb_Y8Pc9taCNDKlVI-1" vertex="1">
                    <mxGeometry y="30" width="140" height="30" as="geometry"/>
                </mxCell>
                <mxCell id="6K4qb_Y8Pc9taCNDKlVI-3" value="BankName: string" style="text;align=left;verticalAlign=middle;spacingLeft=4;spacingRight=4;overflow=hidden;points=[[0,0.5],[1,0.5]];portConstraint=eastwest;rotatable=0;" parent="6K4qb_Y8Pc9taCNDKlVI-1" vertex="1">
                    <mxGeometry y="60" width="140" height="30" as="geometry"/>
                </mxCell>
                <mxCell id="6K4qb_Y8Pc9taCNDKlVI-5" style="edgeStyle=orthogonalEdgeStyle;html=1;exitX=1;exitY=0.5;exitDx=0;exitDy=0;entryX=0;entryY=0.5;entryDx=0;entryDy=0;startArrow=ERone;startFill=0;endArrow=ERone;endFill=0;" parent="l7A9eT8RPMLJg5uUsWfp-1" source="_yUc3wn5C9PAnkP_wkvD-65" target="6K4qb_Y8Pc9taCNDKlVI-1" edge="1">
                    <mxGeometry relative="1" as="geometry"/>
                </mxCell>
                <mxCell id="6K4qb_Y8Pc9taCNDKlVI-6" style="edgeStyle=orthogonalEdgeStyle;html=1;exitX=0;exitY=0.5;exitDx=0;exitDy=0;entryX=1;entryY=0.5;entryDx=0;entryDy=0;startArrow=ERone;startFill=0;endArrow=ERone;endFill=0;" parent="l7A9eT8RPMLJg5uUsWfp-1" source="_yUc3wn5C9PAnkP_wkvD-51" target="6K4qb_Y8Pc9taCNDKlVI-1" edge="1">
                    <mxGeometry relative="1" as="geometry"/>
                </mxCell>
            </root>
        </mxGraphModel>
    </diagram>
</mxfile>